Coordinates

Units are S.I. units (second, meters, Newtons, ...)
If the header above contains a line with 'inDegrees', this indicates whether rotational values are in degrees (yes) or radians (no).

inDegrees=no
nColumns=21
nRows=22
DataType=double
version=3
OpenSimVersion=4.6-2026-03-31-d6972f9e6
endheader
time	/jointset/ground_pelvis/pelvis_tilt/value	/jointset/ground_pelvis/pelvis_list/value	/jointset/ground_pelvis/pelvis_rotation/value	/jointset/ground_pelvis/pelvis_tx/value	/jointset/ground_pelvis/pelvis_ty/value	/jointset/ground_pelvis/pelvis_tz/value	/jointset/hip_r/hip_flexion_r/value	/jointset/hip_r/hip_adduction_r/value	/jointset/hip_r/hip_rotation_r/value	/jointset/walker_knee_r/knee_angle_r/value	/jointset/patellofemoral_r/knee_angle_r_beta/value	/jointset/ankle_r/ankle_angle_r/value	/jointset/subtalar_r/subtalar_angle_r/value	/jointset/hip_l/hip_flexion_l/value	/jointset/hip_l/hip_adduction_l/value	/jointset/hip_l/hip_rotation_l/value	/jointset/walker_knee_l/knee_angle_l/value	/jointset/patellofemoral_l/knee_angle_l_beta/value	/jointset/ankle_l/ankle_angle_l/value	/jointset/subtalar_l/subtalar_angle_l/value
139.996	-0.06334721773305338	0.01885249732492833	-0.02387274056874937	1.135369010000086	0.9599605100000644	-0.3011289100000206	-0.1402602283849827	0.01388162490779053	0.1524183986013606	0.3918624661503212	0.3918624700000281	-0.04679605082234691	-0.3919290857169375	0.5273771353979517	-0.03752823608079588	0.01881283489220921	0.9573579170430682	0.9573579200000691	-0.1307294462812953	-0.6293667826225974
140	-0.06949072929899071	0.02676998823168612	-0.01630732646387749	1.136406325467505	0.9619013372701335	-0.3017631856343211	-0.1514064213768593	0.004725720463839921	0.1413989680033431	0.3763326027704938	0.376332606128729	-0.08154411110019488	-0.3902307018239689	0.531314314812263	-0.02357605040325596	0.01987782523056382	0.9104501427330333	0.9104501449658404	-0.1256861729958546	-0.6244716862108524
140.004	-0.07560254225403523	0.03453170847117465	-0.008798659601446681	1.137444511192013	0.9638211839397925	-0.3023927352709069	-0.162443706429648	-0.004239463354506165	0.130599641454469	0.3610367898714309	0.3610367927461227	-0.1161815314003636	-0.388484847687961	0.5351575916199983	-0.009806741126292172	0.02099998180327019	0.8636632649603944	0.8636632664972702	-0.1206123867837072	-0.6192136211818114
140.008	-0.08165236499073662	0.04198584719775513	-0.00140193908294044	1.138484156104978	0.9656996210785129	-0.3030128739816734	-0.1732627832133595	-0.01282777366525666	0.1202396887745377	0.3462086397234602	0.3462086421291422	-0.1505930902870513	-0.3866408991114185	0.5388196300187688	0.003601104511569601	0.02223412431742516	0.8171232996155469	0.8171233005108672	-0.1154725641976279	-0.6132448833054125
140.012	-0.08761251781221281	0.04898845022798369	0.005830616127829035	1.13952531407148	0.967517292119776	-0.3036189969171623	-0.1837539529849298	-0.020862084358736	0.1105364074283214	0.3320804385856469	0.3320804405414157	-0.1846549302796291	-0.3846421399195946	0.5422253693548883	0.01647742055950914	0.02363056411548629	0.7709656089985601	0.7709656093288739	-0.1102223791079539	-0.6062476113073536
140.016	-0.09345882571542546	0.0554071876286493	0.01285099858841995	1.140567300326029	0.9692563696262264	-0.3042066182785426	-0.1938076975151533	-0.02817855515402103	0.1017033368300327	0.3188815669496631	0.3188815684772816	-0.2182313510807902	-0.3824231434372776	0.5453162741056902	0.02866478078846158	0.0252333036469157	0.7253375968013535	0.7253375966601587	-0.1048070158406327	-0.5979470620368154
140.02	-0.09917118058813425	0.06112490139299442	0.01961639114788331	1.141608554074577	0.9709009183212858	-0.3047714150857537	-0.2033158511576753	-0.03463059810548456	0.09394752574288351	0.3068361991264456	0.3068362002492305	-0.2511725802120579	-0.3799075183269769	0.5480528538065634	0.04002231701951646	0.02707874123296757	0.6803995890866722	0.6803995885784652	-0.09916199995215244	-0.5881230895707532
140.024	-0.1047337821998385	0.06604279796014774	0.02608985687336847	1.142646577159425	0.9724371457883835	-0.3053092788961548	-0.2121733001862026	-0.04009242611128083	0.08746572790979444	0.2961603539927603	0.2961603547353728	-0.2833136059327294	-0.3770061493208634	0.5504154237753621	0.05042928938470905	0.0291949668899955	0.6363239381236181	0.6363239373577866	-0.09321651764816084	-0.5766194834981745
140.028	-0.1101350680640737	0.07008311922538228	0.03224071857763747	1.143677952256398	0.9738535353536653	-0.305816375674698	-0.2202801185852449	-0.04446203240003386	0.08243959649842256	0.2870584211298703	0.2870584215186865	-0.3144741700056969	-0.3736161858998384	0.5524032421083878	0.05978811676618249	0.03160167024306313	0.5932926111300285	0.5932926102150616	-0.08689884835329945	-0.5633509420615609
140.032	-0.1153673645438931	0.07319113210096816	0.03804463286664868	1.144698437050217	0.9751408651152325	-0.3062892130791796	-0.2275439935568737	-0.04766346432913521	0.07903006974868287	0.2797193574311013	0.2797193574946646	-0.3444599885309433	-0.3696210673289726	0.5540322973861097	0.06802668242765199	0.03431061888594666	0.5514936600805208	0.5514936591188504	-0.08014329070206318	-0.5483075283747615
140.036	-0.1204263098110006	0.07533632157702964	0.04348339283058486	1.145703125391548	0.9762921251341339	-0.3067247142671404	-0.2338827536303977	-0.04964830630378604	0.0773712089337595	0.2743128020317364	0.2743128018008385	-0.3730652357302683	-0.3648918425378524	0.5553321040762093	0.07509978049404389	0.03732660101216451	0.5111170192226888	0.5111170183063583	-0.07289781453723503	-0.5315564983564013
140.04	-0.1253100639250109	0.07651275860839561	0.0485445188931257	1.14668666438138	0.9773023555987361	-0.3071202963466355	-0.2392268669921118	-0.05039636934223828	0.07756380733952882	0.2709853409845527	0.2709853404917049	-0.4000763562547144	-0.3592900321969313	0.5563418308680905	0.08098966248519264	0.04064866778493181	0.4723500478397062	0.4723500470469489	-0.06513159932343462	-0.5132414033824282
140.044	-0.1300182843128539	0.07673869928535534	0.05322071613174035	1.147643514898697	0.9781684368790059	-0.307473950737882	-0.2435218482206874	-0.0499156597186946	0.07966914819992216	0.2698571123064676	0.269857111584849	-0.4252772888898304	-0.3526722433599604	0.5571060218725123	0.08570574041474933	0.04427148666257815	0.4353731670197608	0.4353731664125639	-0.05684164695943116	-0.4935784026174747
140.048	-0.1345509176101655	0.07605547811841848	0.05750927641269047	1.148568238142647	0.9788888571797009	-0.3077843230734332	-0.2467304309944904	-0.04824170172511669	0.08370335551511816	0.2710189642136205	0.2710189632958635	-0.4484560278815004	-0.3448965492203294	0.5576702299049264	0.08928352341168211	0.04818664127777934	0.4003558869489576	0.4003558865717713	-0.04805782165134697	-0.4728498387185611
140.052	-0.1389069653772271	0.07452573351133918	0.06141148687242295	1.149455786470356	0.9794634718831764	-0.3080507901153042	-0.2488342479175766	-0.04543626054393259	0.08963282772479769	0.2745303990644595	0.2745303979817	-0.4694122052059313	-0.3358303831896602	0.5580769655895472	0.09178284360952951	0.05238374272928348	0.3674534614007212	0.3674534612803815	-0.03884585967151584	-0.4513952463211091
140.056	-0.1430833514745978	0.07223104812661192	0.0649320883485453	1.150301779225156	0.9798932670219195	-0.3082735285997444	-0.2498348473656936	-0.04158553472992554	0.09737122992727014	0.2804184391000529	0.2804184378814415	-0.4879652894007173	-0.3253595820656851	0.5583622602071771	0.09328546041386361	0.05685121195939968	0.3368042936438608	0.3368042937904938	-0.02930799693130656	-0.4295999710025758
140.06	-0.1470739278847387	0.06926913285025632	0.06807880509417309	1.151102747883925	0.9801801422182815	-0.3084535680574491	-0.2497540341909078	-0.03679790867077128	0.1067784568450389	0.2886774366569831	0.288677435329524	-0.5039630118736724	-0.3133981586878682	0.558552968380662	0.09389216511313471	0.06157659643164562	0.3085281148780365	0.3085281152865939	-0.01958100121073073	-0.4078816219540486
140.064	-0.1508686608729358	0.06575064583386329	0.07086194316823845	1.151856333482729	0.9803267224351906	-0.3085928200066764	-0.2486335156468321	-0.0312013064610079	0.1176618834150339	0.2992698415546396	0.2992698401431707	-0.5172895706452535	-0.2998982322113665	0.5586649089448968	0.09371947191260943	0.0665463544731649	0.282724918882636	0.28272491953488	-0.009831682323657364	-0.3866748116729918
140.068	-0.1544530951640398	0.06179569518679766	0.07329405365227006	1.152561417493483	0.9803361976583745	-0.3086940802484969	-0.246533761335658	-0.02494014123254364	0.1297800610510275	0.3121279580375465	0.3121279565649175	-0.5278730669253698	-0.2848593823071862	0.5587019720099623	0.09289596074520662	0.07174518205103023	0.2594746095620168	0.2594746104289095	-0.0002503224046917421	-0.3664150095425738
140.072	-0.1578081933587585	0.05753009776484846	0.07538966941111122	1.153218170885403	0.9802121848854777	-0.3087610058425983	-0.2435320090861511	-0.01817187483569627	0.1428488034294067	0.3271566847689477	0.3271566832565608	-0.5356916021470051	-0.2683366250390002	0.5586562650841232	0.09155838266128739	0.07715508935284508	0.2388372670431357	0.2388372680875122	0.008957258751666194	-0.3475226322238483
140.076	-0.1609105789201192	0.05308152049555821	0.07716511461926921	1.15382801461127	0.9799586078254181	-0.3087980683383386	-0.2397194701156126	-0.01106325623726685	0.1565494220277243	0.3442371433247505	0.344237141793396	-0.540777514047732	-0.2504462477117176	0.558509248398002	0.08984767602481675	0.08275442481568678	0.2208539145270396	0.2208539157063096	0.0175783317215882	-0.3303883658205751
140.08	-0.1637331262078559	0.04857566110605907	0.07863836605302806	1.154393493993994	0.9795795924448795	-0.3088104816885096	-0.2351979252725067	-0.003786337525009407	0.1705387512644424	0.3632310023458227	0.3632310008164616	-0.5432193631288049	-0.231368906109073	0.5582336928015627	0.08790503121206368	0.0885169318659187	0.2055476850158512	0.2055476862844135	0.02540217702689182	-0.3153602530859841
